<mxfile host="app.diagrams.net" modified="2022-12-20T12:48:06.119Z" agent="5.0 (Windows NT 10.0; Win64; x64) AppleWebKit/537.36 (KHTML, like Gecko) Chrome/108.0.0.0 Safari/537.36" etag="9wAxlKY7pgICb7cTa5a8" version="20.7.4" type="github">
  <diagram id="UK8X9ExnnGmiEa7FEeUT" name="Pagina-1">
    <mxGraphModel dx="1128" dy="764" grid="1" gridSize="10" guides="1" tooltips="1" connect="1" arrows="1" fold="1" page="1" pageScale="1" pageWidth="827" pageHeight="1169" math="0" shadow="0">
      <root>
        <mxCell id="0" />
        <mxCell id="1" parent="0" />
        <mxCell id="8QdUrmVrcIOYs51W0YRF-1" value="" style="shape=image;verticalLabelPosition=bottom;verticalAlign=top;imageAspect=0;aspect=fixed;image=data:image/svg+xml,PHN2ZyBpZD0ic2FwLWhhbmEtY2xvdWQtY29ubmVjdG9yIiB4bWxucz0iaHR0cDovL3d3dy53My5vcmcvMjAwMC9zdmciIHZpZXdCb3g9IjAgMCA1NiA1NiI+PGRlZnM+PHN0eWxlPi5jbHMtMXtmaWxsOiMwYTZlZDE7fS5jbHMtMntmaWxsOiMwNTNiNzA7fTwvc3R5bGU+PC9kZWZzPjx0aXRsZT5zYXAtaGFuYS1jbG91ZC1jb25uZWN0b3I8L3RpdGxlPjxwYXRoIGNsYXNzPSJjbHMtMSIgZD0iTTQxLjUsNDloLTlhMS41LDEuNSwwLDAsMCwwLDNoOWExLjUsMS41LDAsMCwwLDAtM1oiLz48cGF0aCBjbGFzcz0iY2xzLTEiIGQ9Ik00OC45OTEsMjVIMjUuMDA5QTMuMDA5LDMuMDA5LDAsMCwwLDIyLDI4LjAwOVY0Mi45OTFBMy4wMDksMy4wMDksMCwwLDAsMjUuMDA5LDQ2SDQ4Ljk5MUEzLjAwOSwzLjAwOSwwLDAsMCw1Miw0Mi45OTFWMjguMDA5QTMuMDA5LDMuMDA5LDAsMCwwLDQ4Ljk5MSwyNVptMCwxOEwyNSw0Mi45OTEsMjUuMDA5LDI4SDQ4Ljk5MWwuMDA5LjAwOVoiLz48cGF0aCBjbGFzcz0iY2xzLTIiIGQ9Ik0xOS4xMDksN2E2LjQ1NSw2LjQ1NSwwLDAsMSw1Ljg2NCw0LjAzM2wxLjMwNywzLjI5TDI5LjMxLDEyLjVhMy45MjIsMy45MjIsMCwwLDEsMi4wNDMtLjU5MSwzLjk4OCwzLjk4OCwwLDAsMSwzLjkxNCwzLjI0OWwuMjg4LDEuNTI5LDEuNDE1LjY0NmE1LjM1MSw1LjM1MSwwLDAsMSwzLDQuNjdINDNhOC4zNTUsOC4zNTUsMCwwLDAtNC43ODUtNy40QTYuOTQxLDYuOTQxLDAsMCwwLDI3Ljc2Miw5LjkyOCw5LjQ1Miw5LjQ1MiwwLDAsMCwxOS4wNTUsNEM4LjY1LDQsOS44LDE0LjYyMSw5LjgsMTQuNjIxQTguMzg3LDguMzg3LDAsMCwwLDEyLjQxLDMwLjk4NkgxOXYtM0gxMi40MWE1LjM4Nyw1LjM4NywwLDAsMS0xLjY3NS0xMC41MTVsMi4zMDgtLjc1OUwxMi43ODEsMTQuM2E4LjEsOC4xLDAsMCwxLDEuNS01LjI4NEE2LjUsNi41LDAsMCwxLDE5LjEwOSw3WiIvPjwvc3ZnPg==" vertex="1" parent="1">
          <mxGeometry x="250" y="97.5" width="80" height="80" as="geometry" />
        </mxCell>
        <mxCell id="8QdUrmVrcIOYs51W0YRF-2" value="" style="shape=image;verticalLabelPosition=bottom;verticalAlign=top;imageAspect=0;aspect=fixed;image=data:image/svg+xml,PD94bWwgdmVyc2lvbj0iMS4wIiBlbmNvZGluZz0iVVRGLTgiPz4KPHN2ZyB4bWxucz0iaHR0cDovL3d3dy53My5vcmcvMjAwMC9zdmciIHZpZXdCb3g9IjAgMCA2NCA2NCI+PHBhdGggZmlsbD0iIzVkNWI2MyIgZD0iTTYzLjM4IDI2LjFRNTUuMTMgMTkgNDguNTIgMTMuMzYgNDUuNjQgMTEgNDMgOC43NHQtNC44NS00LjA2TDMzLjQxLjYyQTIgMiAwIDAgMCAzMiAwYTIgMiAwIDAgMC0xLjQ5LjYyYy0xLjc1IDEuNS0zLjMzIDIuODYtNC43NSA0LjA2cy0zIDIuNTYtNC44MSA0LjA2LTMuNiAzLTUuNDMgNC42MkwuNTcgMjYuMUExLjcxIDEuNzEgMCAwIDAgMCAyNy41MyAyLjI0IDIuMjQgMCAwIDAgLjY5IDI5YTEuNyAxLjcgMCAwIDAgMS4zOC41NiAyLjE2IDIuMTYgMCAwIDAgMS4zNy0uNjlMMzIgNWwyOC41IDIzLjg0YTIuMjMgMi4yMyAwIDAgMCAxLjQ0LjY5IDEuNzcgMS43NyAwIDAgMCAxLjQ0LS41MyAyIDIgMCAwIDAgLjYyLTEuNDcgMiAyIDAgMCAwLS42Mi0xLjQzeiIgc3R5bGU9ImZpbGw6ICMzNDYxODc7Ii8+PHBhdGggZmlsbD0iIzVkNWI2MyIgZD0iTTQ4LjEyIDM3LjA1YzAtMS41NC0uNzEtNC40LTUuMzYtNi40MUEyNi42NyAyNi42NyAwIDAgMCAzMiAyOC43NmMtOS41IDAtMTYuMTEgMy41MS0xNi4wOSA4LjQzTDE2IDU0Ljc2YzAgNC45IDYuNTkgOC4yOSAxNiA4LjI5aC4xN2M5LjUgMCAxNi4xMS0zLjUxIDE2LjA5LTguNDN6TTE5LjkxIDQ2di0zLjA4YzIuODQgMS42MyA3IDIuNiAxMiAyLjZIMzJhMjcuODMgMjcuODMgMCAwIDAgMTAuNzktMmMuNDktLjIyLjkyLS40NSAxLjMzLS42OHYzYzAgLjkzLTEuMDkgMi0yLjkzIDIuNzhhMjMuNzcgMjMuNzcgMCAwIDEtOS4xNyAxLjY0IDIzIDIzIDAgMCAxLTkuMi0xLjU2Yy0xLjgyLS43OC0yLjkxLTEuODEtMi45MS0yLjd6TTMyIDMyLjc2YTI0IDI0IDAgMCAxIDkuMiAxLjU1YzEuODQuOCAyLjk1IDEuODMgMi45NSAyLjc1UzQzIDM5IDQxLjE5IDM5Ljg0QTIzLjc4IDIzLjc4IDAgMCAxIDMyIDQxLjQ4aC0uMTVjLTcuMDYgMC0xMi0yLjI2LTEyLTQuMzFzNC45OC00LjM4IDEyLjE1LTQuNDF6bS4xMyAyNi4yOWgtLjE2Yy03LjA2IDAtMTItMi4yNi0xMi00LjMxdi0zYy40Mi4yMy44NS40NiAxLjM0LjY4YTI3LjgyIDI3LjgyIDAgMCAwIDEwLjY0IDEuODhoLjE2YTI3Ljc0IDI3Ljc0IDAgMCAwIDEwLjc4LTIgMTIuODMgMTIuODMgMCAwIDAgMS4zNC0uNjl2M2MtLjAyIDIuMDktNC45OSA0LjM5LTEyLjEzIDQuNDR6IiBzdHlsZT0iZmlsbDogIzM0NjE4NzsiLz48cGF0aCBmaWxsPSIjNWQ1YjYzIiBkPSJNMzIgMTJsLTQgMi45M2MtMS4xNy44OC0yLjQ2IDEuODUtMy44NyAyLjk0cy0yLjg3IDIuMi00LjM3IDMuMzdxLTUuMjUgNC4xMS0xMS43NCA5LjExVjY0aDguNTlhMTEuNDkgMTEuNDkgMCAwIDEtMy41OS00aC0xVjMyTDMyIDE3bDIwIDE1djI4aC0xYTExLjY1IDExLjY1IDAgMCAxLTMuNjcgNEg1NlYzMC4zNHEtNi43NS01LTExLjg2LTkuMTEtMi4yNS0xLjc2LTQuMzctMy4zN2MtMS40Mi0xLjA5LTIuNjktMi4wNi0zLjgxLTIuOTR6IiBzdHlsZT0iZmlsbDogIzM0NjE4NzsiLz48L3N2Zz4K" vertex="1" parent="1">
          <mxGeometry x="440" y="97.5" width="65" height="65" as="geometry" />
        </mxCell>
        <mxCell id="8QdUrmVrcIOYs51W0YRF-3" value="" style="shape=image;verticalLabelPosition=bottom;verticalAlign=top;imageAspect=0;aspect=fixed;image=data:image/svg+xml,PHN2ZyBpZD0iaGFuYSIgeG1sbnM9Imh0dHA6Ly93d3cudzMub3JnLzIwMDAvc3ZnIiB2aWV3Qm94PSIwIDAgNTYgNTYiPjxkZWZzPjxzdHlsZT4uY2xzLTF7ZmlsbDojMGE2ZWQxO30uY2xzLTJ7ZmlsbDojMDUzYjcwO308L3N0eWxlPjwvZGVmcz48dGl0bGU+aGFuYTwvdGl0bGU+PHBhdGggY2xhc3M9ImNscy0xIiBkPSJNNTEsMjIuMzMyYTcuMjM2LDcuMjM2LDAsMCwwLTIuNjEzLTEuODJBMjIuNDA4LDIyLjQwOCwwLDAsMCwzOS41NjksMTlhMjIuNCwyMi40LDAsMCwwLTguODE3LDEuNTEyLDcuMjM2LDcuMjM2LDAsMCwwLTIuNjEzLDEuODIsMy43NzIsMy43NzIsMCwwLDAtMSwyLjUyMVY0Ni4wODFhMy42MzIsMy42MzIsMCwwLDAsMSwyLjUxNCw3LjEwNyw3LjEwNywwLDAsMCwyLjYwNywxLjgyMUEyMS4xNTQsMjEuMTU0LDAsMCwwLDM5LjU2OSw1MmEyMi40MDgsMjIuNDA4LDAsMCwwLDguODE4LTEuNTEyQTcuMjM2LDcuMjM2LDAsMCwwLDUxLDQ4LjY2OGEzLjkyNywzLjkyNywwLDAsMCwxLTIuNTIxVjI0Ljg1M0EzLjc3MiwzLjc3MiwwLDAsMCw1MSwyMi4zMzJaTTQyLjM2NSw0OS4xNzRjLS44OTMuMDg1LTEuODE4LjE0NC0yLjguMTQ0YTI4LjUzOCwyOC41MzgsMCwwLDEtMy40MDYtLjIxMVYzMC41NzJhMzMuMjYsMzMuMjYsMCwwLDAsMy40MDYuMTY1Yy45NzksMCwxLjktLjA1LDIuOC0uMTI2Wm03LjE2Ny0zLjAyN2MwLC43LS45MTYsMS40Ni0yLjQ1NCwyLjAzNWExNC4yOCwxNC4yOCwwLDAsMS0yLjIyOS42MjJWMzAuMjY3YTEzLjYyOCwxMy42MjgsMCwwLDAsNC42ODMtMS42NDNaTTQ3LjA3OCwyNi45ODVhMjEuNTcsMjEuNTcsMCwwLDEtNy41MDksMS4xMzYsMjEuNTA4LDIxLjUwOCwwLDAsMS03LjUtMS4xMzZjLTEuNTI0LS42NS0yLjQtMS40MTYtMi40LTIuMXYtLjAzMWMwLTEuMywzLjUyNi0zLjE3MSw5LjktMy4xNzEsNi40MTcsMCw5Ljk2MywxLjg3Niw5Ljk2MywzLjIwNUM0OS41MzIsMjUuNTc4LDQ4LjYzNiwyNi4zNDQsNDcuMDc4LDI2Ljk4NVoiLz48cGF0aCBjbGFzcz0iY2xzLTIiIGQ9Ik0yNC4zLDI3Ljk4NkgxMi40MWE1LjM4Nyw1LjM4NywwLDAsMS0xLjY3NS0xMC41MTVsMi4zMDgtLjc1OUwxMi43ODEsMTQuM2E4LjEsOC4xLDAsMCwxLDEuNS01LjI4NEE2LjUsNi41LDAsMCwxLDE5LjEwOSw3YTYuMDU0LDYuMDU0LDAsMCwxLDUuODY0LDQuMDMzbDEuMzA3LDMuMjlMMjkuMzEsMTIuNWEzLjkyMiwzLjkyMiwwLDAsMSwyLjA0My0uNTkxLDMuOTg4LDMuOTg4LDAsMCwxLDMuOTE0LDMuMjQ5bC4xNTkuODQ1aDNjLS4wNDctLjQzOS0uMTA4LS45LS4yMS0xLjRBNi45NDEsNi45NDEsMCwwLDAsMjcuNzYyLDkuOTI4LDkuNDUyLDkuNDUyLDAsMCwwLDE5LjA1NSw0QzguODYzLDQuMjQyLDkuOCwxNC42MjEsOS44LDE0LjYyMUE4LjM4Nyw4LjM4NywwLDAsMCwxMi40MSwzMC45ODZIMjQuM1oiLz48L3N2Zz4=" vertex="1" parent="1">
          <mxGeometry x="250" y="230" width="50" height="50" as="geometry" />
        </mxCell>
        <mxCell id="8QdUrmVrcIOYs51W0YRF-5" value="" style="endArrow=classic;html=1;rounded=0;exitX=0.5;exitY=1;exitDx=0;exitDy=0;entryX=0.5;entryY=0;entryDx=0;entryDy=0;fillColor=#dae8fc;strokeColor=#6c8ebf;" edge="1" parent="1" source="8QdUrmVrcIOYs51W0YRF-1" target="8QdUrmVrcIOYs51W0YRF-3">
          <mxGeometry width="50" height="50" relative="1" as="geometry">
            <mxPoint x="240" y="320" as="sourcePoint" />
            <mxPoint x="290" y="270" as="targetPoint" />
          </mxGeometry>
        </mxCell>
      </root>
    </mxGraphModel>
  </diagram>
</mxfile>
